<svg width="28" height="28" viewBox="0 0 28 28" fill="none" xmlns="http://www.w3.org/2000/svg">
<g clip-path="url(#clip0_414_148)">
<path d="M14 1.75C15.0346 1.75 16.0269 2.11875 16.7585 2.77513C17.4901 3.4315 17.9011 4.32174 17.9011 5.25V8.75H10.0989V5.25C10.0989 4.32174 10.5099 3.4315 11.2415 2.77513C11.9731 2.11875 12.9654 1.75 14 1.75ZM19.8516 8.75V5.25C19.8516 3.85761 19.2351 2.52226 18.1377 1.53769C17.0403 0.553123 15.5519 0 14 0C12.4481 0 10.9597 0.553123 9.8623 1.53769C8.76491 2.52226 8.14841 3.85761 8.14841 5.25V8.75H4.94953C4.24905 8.75014 3.57187 8.97575 3.04105 9.38584C2.51024 9.79592 2.16104 10.3633 2.0569 10.9847L0.0537016 22.9775C-0.0500905 23.5998 -0.00305981 24.2348 0.191585 24.8393C0.386231 25.4438 0.72391 26.0035 1.18159 26.4802C1.63927 26.9569 2.20617 27.3395 2.84364 27.6018C3.4811 27.864 4.17412 27.9999 4.87541 28H23.1226C23.8241 28.0001 24.5173 27.8645 25.155 27.6023C25.7927 27.3401 26.3599 26.9576 26.8178 26.4809C27.2757 26.0041 27.6135 25.4443 27.8083 24.8397C28.003 24.2351 28.0501 23.5999 27.9463 22.9775L25.9412 10.9847C25.8371 10.3636 25.4881 9.79646 24.9577 9.38641C24.4273 8.97636 23.7506 8.75056 23.0505 8.75H19.8516ZM17.9011 10.5V13.125C17.9011 13.3571 18.0038 13.5796 18.1867 13.7437C18.3696 13.9078 18.6177 14 18.8763 14C19.135 14 19.383 13.9078 19.5659 13.7437C19.7488 13.5796 19.8516 13.3571 19.8516 13.125V10.5H23.0485C23.282 10.5002 23.5076 10.5756 23.6845 10.7124C23.8613 10.8492 23.9775 11.0383 24.0121 11.2455L26.0172 23.2348C26.0798 23.6082 26.0518 23.9894 25.9352 24.3523C25.8186 24.7151 25.6161 25.0512 25.3415 25.3374C25.0669 25.6236 24.7267 25.8534 24.3441 26.0108C23.9615 26.1683 23.5455 26.2499 23.1246 26.25H4.87541C4.45448 26.2499 4.03852 26.1683 3.65593 26.0108C3.27334 25.8534 2.93314 25.6236 2.65854 25.3374C2.38394 25.0512 2.18142 24.7151 2.0648 24.3523C1.94817 23.9894 1.9202 23.6082 1.98278 23.2348L3.98792 11.2455C4.02243 11.0386 4.13839 10.8497 4.3148 10.7129C4.49121 10.5762 4.71639 10.5006 4.94953 10.5H8.14841V13.125C8.14841 13.3571 8.25116 13.5796 8.43406 13.7437C8.61695 13.9078 8.86502 14 9.12367 14C9.38233 14 9.63039 13.9078 9.81329 13.7437C9.99619 13.5796 10.0989 13.3571 10.0989 13.125V10.5H17.9011Z" fill="black"/>
</g>
<defs>
<clipPath id="clip0_414_148">
<rect width="28" height="28" fill="white"/>
</clipPath>
</defs>
</svg>
