<svg width="14" height="26" viewBox="0 0 14 26" fill="none" xmlns="http://www.w3.org/2000/svg">
<path d="M8.77125 2.04397C8.86794 2.04397 8.92357 2.04803 8.92357 2.04803H11.0454L11.0345 4.48553H8.92685C7.767 4.48553 7.79382 5.47595 7.79382 5.47595V9.3402H11.8978L11.3249 11.7744H7.78041V23.9563H5.34535L5.34372 11.7744H2.10875L2.10225 9.3402H5.34494V5.55232C5.3453 2.24951 8.08835 2.04397 8.77125 2.04397ZM8.77125 0.418945C8.18707 0.418945 7.04545 0.515658 5.96402 1.16728C4.94027 1.78316 3.7203 3.04454 3.7203 5.55194V7.71479H2.10261C1.67077 7.71479 1.2568 7.88704 0.951296 8.19256C0.800354 8.34411 0.680815 8.52397 0.599533 8.72182C0.518251 8.91966 0.476826 9.13161 0.477635 9.3455L0.484135 11.7798C0.487385 12.6747 1.21417 13.3991 2.10913 13.3991H3.7191L3.72073 23.9559C3.72073 24.8533 4.44835 25.5809 5.34573 25.5809H7.78082C8.6782 25.5809 9.40582 24.8533 9.40582 23.9559V13.3991H11.3253C12.0464 13.3991 12.6814 12.9238 12.8845 12.2319L13.4573 9.79766C13.6015 9.30653 13.5056 8.77556 13.1985 8.36644C13.0474 8.16413 12.8512 7.99989 12.6254 7.88676C12.3997 7.77364 12.1506 7.71476 11.8981 7.71481H9.41917V6.11135L11.0348 6.11053C11.929 6.11053 12.6558 5.38781 12.6598 4.49285L12.6708 2.13781C12.6724 2.10792 12.6732 2.07798 12.6732 2.04803C12.6732 1.15063 11.9473 0.423033 11.0499 0.423033H8.96948C8.92276 0.420596 8.85532 0.418971 8.77125 0.418945Z" fill="black"/>
</svg>
