<svg width="26" height="26" viewBox="0 0 26 26" fill="none" xmlns="http://www.w3.org/2000/svg">
<g clip-path="url(#clip0_291_170)">
<path d="M12.9746 0.101562C16.4785 0.101562 16.9102 0.126953 18.2812 0.177734C19.627 0.228516 20.5664 0.457031 21.4043 0.787109C22.2676 1.11719 22.9785 1.54883 23.6895 2.25977C24.4004 2.9707 24.832 3.68164 25.1621 4.54492C25.4922 5.38281 25.7207 6.32227 25.7715 7.66797C25.8223 9.03906 25.8477 9.4707 25.8477 12.9746C25.8477 16.4785 25.8223 16.9102 25.7715 18.2812C25.7207 19.627 25.4922 20.5664 25.1621 21.4043C24.832 22.2676 24.4004 22.9785 23.6895 23.6895C22.9785 24.4004 22.2676 24.832 21.4043 25.1621C20.5664 25.4922 19.627 25.7207 18.2812 25.7715C16.9102 25.8223 16.4785 25.8477 12.9746 25.8477C9.4707 25.8477 9.03906 25.8223 7.66797 25.7715C6.32227 25.7207 5.38281 25.4922 4.54492 25.1621C3.68164 24.832 2.9707 24.4004 2.25977 23.6895C1.54883 22.9785 1.11719 22.2676 0.787109 21.4043C0.457031 20.5664 0.228516 19.627 0.177734 18.2812C0.126953 16.9102 0.101562 16.4785 0.101562 12.9746C0.101562 9.4707 0.126953 9.03906 0.177734 7.66797C0.228516 6.32227 0.457031 5.38281 0.787109 4.54492C1.11719 3.68164 1.54883 2.9707 2.25977 2.25977C2.9707 1.54883 3.68164 1.11719 4.54492 0.787109C5.38281 0.457031 6.32227 0.228516 7.66797 0.177734C9.03906 0.126953 9.4707 0.101562 12.9746 0.101562ZM12.9746 1.77734C9.31836 1.77734 8.88672 1.80273 7.46484 1.85352C6.14453 1.9043 5.4082 2.1582 4.92578 2.33594C3.68164 2.84375 2.84375 3.68164 2.33594 4.92578C2.1582 5.4082 1.9043 6.14453 1.85352 7.46484C1.80273 8.88672 1.77734 9.31836 1.77734 12.9746C1.77734 16.6309 1.80273 17.0625 1.85352 18.4844C1.9043 19.8047 2.1582 20.541 2.33594 21.0234C2.84375 22.2676 3.68164 23.1055 4.92578 23.6133C5.4082 23.791 6.14453 24.0449 7.46484 24.0957C8.88672 24.1465 9.31836 24.1719 12.9746 24.1719C16.6309 24.1719 17.0625 24.1465 18.4844 24.0957C19.8047 24.0449 20.541 23.791 21.0234 23.6133C22.2676 23.1055 23.1055 22.2676 23.6133 21.0234C23.791 20.541 24.0449 19.8047 24.0957 18.4844C24.1465 17.0625 24.1719 16.6309 24.1719 12.9746C24.1719 9.31836 24.1465 8.88672 24.0957 7.46484C24.0449 6.14453 23.791 5.4082 23.6133 4.92578C23.1055 3.68164 22.2676 2.84375 21.0234 2.33594C20.541 2.1582 19.8047 1.9043 18.4844 1.85352C17.0625 1.80273 16.6309 1.77734 12.9746 1.77734ZM12.9746 18.1289C15.8184 18.1289 18.1289 15.8184 18.1289 12.9746C18.1289 10.1309 15.8184 7.82031 12.9746 7.82031C10.1309 7.82031 7.82031 10.1309 7.82031 12.9746C7.82031 15.8184 10.1309 18.1289 12.9746 18.1289ZM12.9746 6.37305C16.6309 6.37305 19.5762 9.31836 19.5762 12.9746C19.5762 16.6309 16.6309 19.5762 12.9746 19.5762C9.31836 19.5762 6.37305 16.6309 6.37305 12.9746C6.37305 9.31836 9.31836 6.37305 12.9746 6.37305ZM21.4043 6.11914C21.4043 6.98242 20.6934 7.64258 19.8301 7.64258C18.9668 7.64258 18.3066 6.98242 18.3066 6.11914C18.3066 5.25586 18.9668 4.54492 19.8301 4.54492C20.6934 4.54492 21.4043 5.25586 21.4043 6.11914Z" fill="black"/>
</g>
<defs>
<clipPath id="clip0_291_170">
<rect width="26" height="26" fill="white"/>
</clipPath>
</defs>
</svg>
