<svg width="149" height="56" viewBox="0 0 149 56" fill="none" xmlns="http://www.w3.org/2000/svg">
<path d="M33.92 37L34.16 37.16L33.28 42H16.6C16.6 42 16.6 41.8 16.6 41.72C17.24 41.36 17.52 40.76 17.52 39.36V16.68C17.52 15.24 17.24 14.68 16.6 14.32C16.6 14.24 16.6 14 16.6 14H21.56C21.56 14 21.56 14.24 21.56 14.32C20.96 14.68 20.68 15.24 20.68 16.68V41.72H24.32C28.76 41.72 32.04 39.44 33.92 37ZM55.2009 41.72C55.2009 41.8 55.2009 42 55.2009 42H51.1209V32.28C50.6009 36.8 49.2409 42.24 44.0409 42.24C40.3609 42.24 37.4409 39.92 37.4409 35.2V25.84C37.4409 24.44 37.3209 24.04 36.5609 23.92C36.5609 23.84 36.5609 23.64 36.5609 23.64L40.3209 22.76H40.6009V35.8C40.6009 39.28 42.4009 42.16 45.8409 41.52C50.3209 40.64 51.1209 32.28 51.1209 28.92V25.84C51.1209 24.44 51.0009 24.04 50.2409 23.92C50.2409 23.84 50.2409 23.64 50.2409 23.64L54.0009 22.76H54.2809V39.36C54.2809 40.76 54.5609 41.36 55.2009 41.72ZM74.3356 38.96C75.3756 40.32 76.4556 41.32 77.6556 41.72C77.6556 41.8 77.6556 42 77.6556 42H70.9356C70.9356 42 70.9356 41.8 70.9356 41.72C71.5756 41.44 72.1356 40.72 71.2156 39.44L65.8956 32.44L63.8556 35.08C61.0556 38.72 60.1756 40.92 61.8156 41.72V42H56.8156V41.72C59.2156 40.68 60.5356 39.04 63.4156 35.24L65.7356 32.24L60.8156 25.8C59.8156 24.48 58.6956 23.48 57.5356 23.08C57.5356 22.96 57.5356 22.76 57.5356 22.76H64.2556C64.2556 22.76 64.2556 22.96 64.2556 23.08C63.6156 23.36 63.0156 24.08 64.0156 25.4L68.1756 30.88L69.0956 29.68C71.8956 26.08 72.7756 23.84 71.1756 23.08V22.76H76.1356V23.08C73.7356 24.08 72.4156 25.76 69.5356 29.52L68.3356 31.08L74.3356 38.96ZM88.4947 22.76C93.8547 22.76 98.4947 26.12 98.4947 31.64C98.4947 38.04 93.0147 42.24 87.6547 42.24C82.2547 42.24 77.6547 38.96 77.6547 33.36C77.6547 26.76 83.1347 22.76 88.4947 22.76ZM90.7347 41.52C95.2947 40.2 96.5347 35.2 95.1347 30.36C93.7347 25.56 89.9747 22.16 85.4147 23.48C80.8547 24.8 79.6147 29.8 81.0147 34.64C82.4147 39.44 86.1747 42.88 90.7347 41.52ZM111.128 22.76C113.288 22.76 114.528 23.52 115.888 25.12L113.448 28.56L113.168 28.4C113.088 26.12 111.968 23.16 109.808 23.48C105.888 24.08 105.368 34.4 105.368 37.8V39.36C105.368 40.76 105.648 41.36 106.248 41.72C106.248 41.8 106.248 42 106.248 42H101.288C101.288 42 101.288 41.8 101.288 41.72C101.928 41.36 102.208 40.76 102.208 39.36V25.84C102.208 24.44 102.088 24.04 101.288 23.92C101.288 23.84 101.288 23.64 101.288 23.64L105.048 22.76H105.368V33.48C105.768 28.64 106.888 22.76 111.128 22.76ZM132.526 41.72C132.526 41.8 132.526 42 132.526 42H128.486V36.4C127.446 39.92 125.246 42.24 121.406 42.24C118.126 42.24 114.926 40.68 114.406 37.8C113.726 33.72 116.166 31.32 119.246 30.04C118.206 27.72 119.446 22.76 124.806 22.76C128.126 22.76 131.646 24.52 131.646 29.44V39.36C131.646 40.76 131.926 41.36 132.526 41.72ZM124.446 23.16C120.846 23.16 118.446 26.64 119.646 29.88C121.806 29.08 124.206 28.8 126.086 28.8C127.006 28.8 127.806 28.96 128.486 29.16V28.88C128.486 25.84 127.286 23.16 124.446 23.16ZM122.366 41.72C125.846 41.52 127.686 38.56 128.486 35.68V29.52C128.286 29.44 127.326 29.16 126.086 29.16C121.726 29.16 115.806 31.32 117.526 38.36C118.046 40.52 120.366 41.84 122.366 41.72Z" fill="black"/>
</svg>
