<svg width="28" height="28" viewBox="0 0 28 28" fill="none" xmlns="http://www.w3.org/2000/svg">
<g clip-path="url(#clip0_414_144)">
<path d="M20.5485 18.1021C22.243 15.7898 23.002 12.9229 22.6735 10.0751C22.3451 7.22725 20.9535 4.60843 18.7771 2.74256C16.6007 0.876696 13.8 -0.0986095 10.9354 0.0117686C8.07085 0.122147 5.35356 1.31007 3.3272 3.33787C1.30085 5.36568 0.114873 8.08382 0.00654452 10.9485C-0.101784 13.8132 0.875526 16.6131 2.74295 18.7882C4.61037 20.9632 7.23019 22.353 10.0783 22.6794C12.9263 23.0058 15.7927 22.2448 18.1037 20.5486H18.102C18.1545 20.6186 18.2105 20.6851 18.2735 20.7498L25.011 27.4873C25.3391 27.8157 25.7843 28.0003 26.2485 28.0004C26.7127 28.0006 27.158 27.8163 27.4864 27.4882C27.8147 27.1601 27.9993 26.7149 27.9995 26.2507C27.9996 25.7865 27.8154 25.3412 27.4872 25.0128L20.7497 18.2753C20.6872 18.212 20.6199 18.1553 20.5485 18.1021ZM21 11.3751C21 12.6391 20.751 13.8907 20.2673 15.0584C19.7836 16.2262 19.0747 17.2872 18.1809 18.181C17.2871 19.0748 16.2261 19.7837 15.0583 20.2674C13.8906 20.7511 12.639 21.0001 11.375 21.0001C10.111 21.0001 8.85942 20.7511 7.69166 20.2674C6.5239 19.7837 5.46285 19.0748 4.56908 18.181C3.67532 17.2872 2.96635 16.2262 2.48264 15.0584C1.99894 13.8907 1.74998 12.6391 1.74998 11.3751C1.74998 8.82238 2.76404 6.37422 4.56908 4.56918C6.37412 2.76414 8.82228 1.75008 11.375 1.75008C13.9277 1.75008 16.3758 2.76414 18.1809 4.56918C19.9859 6.37422 21 8.82238 21 11.3751Z" fill="black"/>
</g>
<defs>
<clipPath id="clip0_414_144">
<rect width="28" height="28" fill="white"/>
</clipPath>
</defs>
</svg>
